<?xml version="1.0" standalone="no"?>
<!DOCTYPE svg PUBLIC "-//W3C//DTD SVG 20010904//EN"
 "http://www.w3.org/TR/2001/REC-SVG-20010904/DTD/svg10.dtd">
<svg version="1.0" xmlns="http://www.w3.org/2000/svg"
 width="64.000000pt" height="64.000000pt" viewBox="0 0 64.000000 64.000000"
 preserveAspectRatio="xMidYMid meet">

<g transform="translate(0.000000,64.000000) scale(0.100000,-0.100000)"
fill="#000000" stroke="none">
<path d="M97 604 c-4 -4 -7 -74 -7 -156 l0 -148 235 0 236 0 -3 153 -3 152
-226 3 c-124 1 -228 -1 -232 -4z m433 -149 l0 -125 -205 0 -205 0 0 125 0 125
205 0 205 0 0 -125z"/>
<path d="M321 472 c-7 -24 -10 -51 -8 -60 2 -10 9 2 16 26 7 24 10 51 8 60 -2
10 -9 -2 -16 -26z"/>
<path d="M248 474 c-16 -8 -28 -18 -28 -23 0 -12 56 -34 72 -28 8 3 0 10 -17
17 l-30 12 28 14 c15 8 27 17 27 19 0 9 -25 4 -52 -11z"/>
<path d="M350 481 c0 -5 12 -14 28 -19 l27 -10 -27 -11 c-16 -6 -28 -15 -28
-21 0 -6 14 -4 36 5 20 8 38 15 40 15 15 0 -1 22 -26 35 -33 17 -50 19 -50 6z"/>
<path d="M40 280 c19 -12 537 -12 565 0 12 5 -103 9 -280 9 -197 1 -295 -3
-285 -9z"/>
<path d="M16 198 c-21 -30 -5 -54 45 -70 48 -14 60 -35 33 -55 -18 -13 -38
-12 -81 4 -16 6 -16 5 -4 -10 28 -35 121 -14 121 28 0 19 -28 45 -50 45 -10 0
-28 9 -41 20 -24 20 -24 20 -4 36 14 10 31 13 53 9 23 -4 32 -3 27 4 -3 6 -24
11 -45 11 -28 0 -43 -6 -54 -22z"/>
<path d="M184 196 c-39 -33 -39 -89 0 -122 28 -25 79 -32 106 -14 23 14 5 22
-23 9 -55 -25 -115 39 -89 96 15 33 58 50 91 35 27 -12 43 -4 21 10 -27 18
-78 11 -106 -14z"/>
<path d="M347 202 c-10 -10 -17 -23 -17 -29 0 -16 29 -37 69 -48 42 -12 52
-39 21 -55 -16 -8 -30 -9 -52 -1 -34 12 -52 6 -28 -9 40 -25 120 -2 120 34 0
20 -31 43 -68 51 -68 14 -42 73 26 60 23 -4 32 -3 27 4 -11 18 -80 13 -98 -7z"/>
<path d="M506 189 c-33 -39 -33 -69 0 -108 20 -24 34 -31 62 -31 38 0 71 14
61 25 -4 3 -18 1 -32 -6 -55 -25 -115 39 -89 96 15 33 58 50 91 35 13 -6 26
-8 30 -5 10 11 -23 25 -61 25 -28 0 -42 -7 -62 -31z"/>
</g>
</svg>
